<svg width="62" height="72" viewBox="0 0 62 72" fill="none" xmlns="http://www.w3.org/2000/svg">
<path d="M13.6279 53.0124C21.1944 55.6412 26.8605 57.4174 30.626 58.341C34.427 59.3001 37.6774 59.7797 40.3772 59.7797C43.1126 59.7797 46.1143 59.158 49.3825 57.9147L49.6489 58.341C45.315 61.325 40.9456 62.817 36.5407 62.817C32.0292 62.817 26.896 61.4138 21.1411 58.6074C16.7007 56.4049 13.9476 55.0728 12.8819 54.611C9.08082 52.9059 5.95473 52.0355 3.50359 52V51.4671H4.1963C5.11992 51.4671 5.90144 51.1474 6.54087 50.508C7.21582 49.8686 7.57106 49.0693 7.60658 48.1101V18.5899C7.57106 17.6663 7.21582 16.8848 6.54087 16.2453C5.90144 15.5704 5.11992 15.2329 4.1963 15.2329H3.50359V14.7001H15.1731V15.2329H14.4804C13.5568 15.2329 12.7575 15.5704 12.0826 16.2453C11.4076 16.8848 11.0701 17.6663 11.0701 18.5899V49.3357C11.0701 49.9751 11.1057 50.4725 11.1767 50.8277C11.2478 51.1474 11.4787 51.5204 11.8694 51.9467C12.2602 52.373 12.8463 52.7282 13.6279 53.0124Z" fill="#FDFDFD"/>
<g clip-path="url(#clip0_5_29)">
<path d="M20.095 21.3807C20.9616 18.8406 22.411 17.0924 24.4431 16.1361C26.4752 15.1798 30.0762 14.7017 35.2461 14.7017C36.3219 14.7017 39.0414 14.7465 43.4044 14.8362C46.5721 14.9258 49.3663 15.6132 51.7869 16.8982C54.2075 18.1832 56.0901 20.0061 57.4349 22.3669C58.8096 24.6979 59.4969 27.4173 59.4969 30.5252C59.4969 35.217 58.0027 39.0122 55.0143 41.911C52.0558 44.7798 48.1858 46.2143 43.4044 46.2143H28.2085L28.2533 45.766H28.7912C29.5383 45.766 30.1808 45.5269 30.7187 45.0488C31.2566 44.5408 31.5704 43.9281 31.66 43.2109V16.1809C27.9246 16.2706 25.2798 16.8533 23.7259 17.9292C22.919 18.4969 22.3064 19.0498 21.888 19.5877C21.4696 20.0957 21.0363 20.7532 20.5881 21.56L20.095 21.3807ZM34.5737 16.1809V44.8695H43.4044C47.1997 44.8695 50.2628 43.5546 52.5937 40.9248C54.9545 38.295 56.135 34.8285 56.135 30.5252C56.135 27.6862 55.5971 25.1909 54.5212 23.0393C53.4753 20.8578 51.9811 19.1693 50.0386 17.974C48.1261 16.7786 45.9147 16.1809 43.4044 16.1809H34.5737Z" fill="#FDFDFD"/>
</g>
<defs>
<clipPath id="clip0_5_29">
<rect width="33" height="60" fill="white" transform="translate(29 2)"/>
</clipPath>
</defs>
</svg>
